<svg width="24" height="24" viewBox="0 0 24 24" fill="none" xmlns="http://www.w3.org/2000/svg">
<mask id="mask0_31_34" style="mask-type:alpha" maskUnits="userSpaceOnUse" x="0" y="0" width="24" height="24">
<rect width="24" height="24" fill="#D9D9D9"/>
</mask>
<g mask="url(#mask0_31_34)">
<path d="M5 21C4.45 21 3.97917 20.8042 3.5875 20.4125C3.19583 20.0209 3 19.55 3 19V5.00002C3 4.45002 3.19583 3.97919 3.5875 3.58752C3.97917 3.19586 4.45 3.00002 5 3.00002H12C12.2833 3.00002 12.5208 3.09586 12.7125 3.28752C12.9042 3.47919 13 3.71669 13 4.00002C13 4.28336 12.9042 4.52086 12.7125 4.71252C12.5208 4.90419 12.2833 5.00002 12 5.00002H5V19H19V13C19 12.7167 19.0958 12.4792 19.2875 12.2875C19.4792 12.0959 19.7167 12 20 12C20.2833 12 20.5208 12.0959 20.7125 12.2875C20.9042 12.4792 21 12.7167 21 13V19C21 19.55 20.8042 20.0209 20.4125 20.4125C20.0208 20.8042 19.55 21 19 21H5ZM18 5.82502L17.1 6.70002C16.9167 6.88336 16.6875 6.97919 16.4125 6.98752C16.1375 6.99586 15.9 6.90002 15.7 6.70002C15.5167 6.51669 15.425 6.28336 15.425 6.00002C15.425 5.71669 15.5167 5.48336 15.7 5.30002L18.3 2.70002C18.4 2.60002 18.5083 2.52502 18.625 2.47502C18.7417 2.42502 18.8667 2.40002 19 2.40002C19.1333 2.40002 19.2583 2.42502 19.375 2.47502C19.4917 2.52502 19.6 2.60002 19.7 2.70002L22.3 5.30002C22.4833 5.48336 22.5792 5.71252 22.5875 5.98752C22.5958 6.26252 22.5 6.50002 22.3 6.70002C22.1167 6.88336 21.8833 6.97502 21.6 6.97502C21.3167 6.97502 21.0833 6.88336 20.9 6.70002L20 5.82502V9.00002C20 9.28336 19.9042 9.52086 19.7125 9.71252C19.5208 9.90419 19.2833 10 19 10C18.7167 10 18.4792 9.90419 18.2875 9.71252C18.0958 9.52086 18 9.28336 18 9.00002V5.82502ZM7 17H17C17.2 17 17.35 16.9084 17.45 16.725C17.55 16.5417 17.5333 16.3667 17.4 16.2L14.65 12.525C14.55 12.3917 14.4167 12.325 14.25 12.325C14.0833 12.325 13.95 12.3917 13.85 12.525L11.25 16L9.4 13.525C9.3 13.3917 9.16667 13.325 9 13.325C8.83333 13.325 8.7 13.3917 8.6 13.525L6.6 16.2C6.46667 16.3667 6.45 16.5417 6.55 16.725C6.65 16.9084 6.8 17 7 17Z" fill="#4A90E8"/>
</g>
</svg>
